<?xml version="1.0" encoding="UTF-8"?>
<svg id="Layer_1" data-name="Layer 1" xmlns="http://www.w3.org/2000/svg" viewBox="0 0 740 150">
  <defs>
    <style>
      .cls-1 {
        fill: #fff;
        stroke-width: 0px;
      }
    </style>
  </defs>
  <path class="cls-1" d="M108.67,6.59l-28.53,62.38h-.32l-5.15-62.38h-41.33L11.83,118.1h28.23l13.57-69.87h.31l4.99,69.87h23.55l31.5-69.87h.31l-13.57,69.87h29.01L151.25,6.59h-42.58Z"/>
  <path class="cls-1" d="M206.89,41.52c-5.77-3.58-12.79-5.61-22.61-5.61-26.67,0-45.38,20.74-45.38,47.72,0,23.87,17.78,36.65,41.17,36.65,9.05,0,17-2.03,24.64-6.71,6.87-4.21,12.16-10.6,14.82-19.18h-28.07c-2.03,4.37-6.56,6.09-11.39,6.09-10.6,0-13.41-7.49-13.57-14.97h54.89c2.97-20.28-1.56-35.71-14.5-43.98ZM195.51,69.91h-26.98c2.96-10.61,9.67-14.35,15.59-14.35,8.42,0,11.69,6.55,11.38,14.35Z"/>
  <path class="cls-1" d="M313.75,38.56h-27.61l-1.87,9.83h-.47c-5.15-8.89-13.1-12.32-22.61-12.32-23.86,0-37.74,24.64-37.74,46.63,0,18.71,12.95,31.5,29,31.5,7.95-.15,14.51-3.74,19.03-8.73h.62l-1.56,8.11c-1.56,7.8-5.3,12.79-13.57,12.79-6.08,0-10.14-2.34-11.07-6.86h-27.76c2.03,18.71,19.65,26.35,37.9,26.35,10.6,0,20.12-1.72,27.29-6.55,8.11-5.46,13.42-13.57,16.06-27.45l7.08-36.17-21.4-10.97h23.55l5.12-26.15ZM263.07,93.93c-8.11,0-11.07-6.87-11.07-14.04,0-10.6,5.46-22.92,16.53-22.92,8.11,0,11.07,7.17,11.07,14.19,0,10.61-5.77,22.92-16.53,22.77Z"/>
  <path class="cls-1" d="M386.31,69.91c2.96-14.82-1.72-23.55-9.05-28.39-6.71-4.36-15.44-5.46-24.02-5.46-26.04,0-38.37,11.85-41.49,28.7h27.61c1.56-6.24,5.46-9.52,12.16-9.52,5.46,0,7.48,2.96,7.48,6.24,0,7.8-7.17,9.05-23.7,9.98-19.34,1.09-31.35,8.42-31.35,26.2,0,13.57,9.05,22.45,24.64,22.45,7.17,0,15.44-3.43,21.36-10.76h.31c0,3.43.47,6.86,1.25,8.73h28.22l.16-1.24c-1.56-1.56-1.87-5.15-.47-11.85l6.87-35.09ZM354.34,89.56c-2.03,9.98-7.64,12.95-13.73,12.95-5.3,0-8.73-2.03-8.73-7.33,0-7.33,6.71-8.73,12.01-9.52,4.99-.77,8.73-1.72,11.85-3.12l-1.4,7.02Z"/>
  <path class="cls-1" d="M450.7,36.07c-11.38,0-19.34,5.93-24.95,13.1h-.47l8.26-42.57h-28.84l-21.53,111.5h29.01l8.42-43.82c1.72-8.42,7.33-14.97,14.5-14.97,7.64,0,9.36,5.46,7.95,12.48l-9.05,46.32h29.01l8.06-41.8,1.14-5.92c.38-1.95.66-3.82.82-5.61,1.83-18.69-7.4-28.7-22.34-28.7Z"/>
  <path class="cls-1" d="M551.24,69.91c2.97-14.82-1.72-23.55-9.05-28.39-6.7-4.36-15.44-5.46-24.02-5.46-26.04,0-38.36,11.85-41.48,28.7h27.6c1.56-6.24,5.46-9.52,12.16-9.52,5.46,0,7.49,2.96,7.49,6.24,0,7.8-7.17,9.05-23.71,9.98-19.34,1.09-31.35,8.42-31.35,26.2,0,13.57,9.05,22.45,24.64,22.45,7.18,0,15.44-3.43,21.37-10.76h.31c0,3.43.47,6.86,1.24,8.73h28.23l.16-1.24c-1.56-1.56-1.87-5.15-.47-11.85l6.86-35.09ZM519.27,89.56c-2.03,9.98-7.64,12.95-13.72,12.95-5.3,0-8.73-2.03-8.73-7.33,0-7.33,6.71-8.73,12.01-9.52,4.99-.77,8.73-1.72,11.85-3.12l-1.4,7.02Z"/>
  <path class="cls-1" d="M612.25,36.85c-9.82,0-18.09,4.36-24.95,14.97h-.46l2.65-13.26h-27.76l-15.44,79.53h29.01l5.93-30.88c3.85-19.87,13.18-27.11,30.39-24.58.21.03.43.06.64.1h.63l.94-4.87,3.89-20.23c-.94-.47-3.12-.78-5.46-.78Z"/>
  <path class="cls-1" d="M679,6.59l-8.11,41.64h-.46c-4.83-7.64-11.7-12.16-22.46-12.16-16.11,0-27.54,9.17-34.14,21.8-.82,1.54-1.55,3.13-2.21,4.77-2.94,7.27-4.45,15.35-4.5,23.34-.16,21.2,12.01,34.77,30.1,34.77,9.67,0,18.4-5.61,23.08-12.16h.31l-1.72,9.52h27.61l21.52-111.5h-29.01ZM648.9,98.76c-8.73,0-11.54-7.8-11.54-15.28,0-11.39,5.15-26.35,17.16-26.51,8.89,0,11.85,8.42,11.85,16.06,0,11.22-5.92,25.73-17.46,25.73Z"/>
  <path class="cls-1" d="M706.9,49.8c0-6.22,4.74-10.83,10.74-10.83s10.74,4.61,10.74,10.83-4.74,10.83-10.74,10.83-10.74-4.61-10.74-10.83ZM726.23,49.8c0-5.15-3.67-8.95-8.59-8.95s-8.59,3.8-8.59,8.95,3.67,8.99,8.59,8.99,8.59-3.8,8.59-8.99ZM712.76,44.02h5.73c2.37,0,4.52,1.07,4.52,3.4,0,1.3-.67,2.28-1.88,2.73v.09c1.03.36,1.39,1.03,1.61,1.92.31,1.34.09,2.77.58,3v.27h-3.62c-.31-.18-.22-1.57-.45-2.64-.18-.89-.58-1.21-1.57-1.21h-1.25v3.85h-3.67v-11.41ZM716.43,49.04h1.52c.94,0,1.43-.36,1.43-1.12,0-.72-.4-1.07-1.43-1.07h-1.52v2.19Z"/>
</svg>