<?xml version="1.0" encoding="UTF-8"?>
<svg id="Layer_1" data-name="Layer 1" xmlns="http://www.w3.org/2000/svg" viewBox="0 0 740 150">
  <defs>
    <style>
      .cls-1 {
        fill: #fff;
        stroke-width: 0px;
      }
    </style>
  </defs>
  <path class="cls-1" d="M51.16,99.07l-22.46-56.05v44.5c0,4.09.39,6.65,1.16,7.66,1.06,1.38,2.73,2.06,5.02,2.06h2.06v1.82h-20.23v-1.82h2.06c2.46,0,4.2-.85,5.23-2.55.63-1.05.94-3.44.94-7.17v-43.52c0-2.95-.29-5.08-.86-6.39-.4-.95-1.14-1.74-2.21-2.38s-2.79-.96-5.17-.96v-1.82h16.46l21.09,52.12,20.75-52.12h16.46v1.82h-2.01c-2.49,0-4.24.85-5.27,2.55-.63,1.05-.94,3.44-.94,7.17v43.52c0,4.09.4,6.65,1.2,7.66,1.06,1.38,2.73,2.06,5.02,2.06h2.01v1.82h-24.69v-1.82h2.06c2.49,0,4.23-.85,5.23-2.55.63-1.05.94-3.44.94-7.17v-44.5l-22.42,56.05h-1.41Z"/>
  <path class="cls-1" d="M112.41,92.59c-4.03,3.57-6.56,5.63-7.59,6.19-1.54.82-3.19,1.23-4.93,1.23-2.72,0-4.95-1.06-6.71-3.19-1.76-2.13-2.64-4.93-2.64-8.4,0-2.19.43-4.09,1.29-5.7,1.17-2.23,3.21-4.32,6.11-6.29,2.9-1.96,7.72-4.35,14.47-7.17v-1.77c0-4.49-.62-7.56-1.87-9.23s-3.05-2.51-5.42-2.51c-1.8,0-3.23.56-4.29,1.67-1.09,1.11-1.63,2.39-1.63,3.83l.09,2.85c0,1.51-.34,2.67-1.01,3.49-.67.82-1.55,1.23-2.64,1.23s-1.92-.43-2.59-1.28c-.67-.85-1.01-2.01-1.01-3.49,0-2.82,1.26-5.4,3.77-7.76,2.51-2.36,6.04-3.54,10.59-3.54,3.49,0,6.34.67,8.57,2.01,1.69,1.02,2.93,2.6,3.73,4.76.51,1.41.77,4.29.77,8.65v15.28c0,4.29.07,6.92.21,7.88.14.97.38,1.61.71,1.94s.71.49,1.14.49c.46,0,.86-.11,1.2-.34.6-.43,1.76-1.62,3.47-3.59v2.75c-3.2,4.91-6.26,7.37-9.17,7.37-1.4,0-2.52-.56-3.34-1.67-.83-1.11-1.26-3.01-1.29-5.7ZM112.41,89.39v-17.14c-4.32,1.96-7.1,3.36-8.36,4.17-2.26,1.44-3.87,2.95-4.84,4.52-.97,1.57-1.46,3.29-1.46,5.16,0,2.36.61,4.32,1.84,5.87,1.23,1.56,2.64,2.33,4.24,2.33,2.17,0,5.03-1.64,8.57-4.91Z"/>
  <path class="cls-1" d="M134.86,29.22v44.75l9.99-10.41c2.11-2.23,3.34-3.63,3.69-4.22.23-.39.34-.79.34-1.18,0-.65-.24-1.22-.71-1.69s-1.25-.74-2.34-.81v-1.57h17.06v1.57c-2.34.07-4.29.48-5.85,1.23-1.56.75-3.27,2.1-5.12,4.03l-10.07,10.66,10.07,14.59c2.8,4.03,4.69,6.58,5.66,7.66,1.37,1.54,2.57,2.54,3.6,3,.71.33,1.96.49,3.73.49v1.77h-19.08v-1.77c1.09-.03,1.82-.22,2.21-.57.39-.34.58-.83.58-1.45,0-.75-.57-1.96-1.72-3.63l-12.05-17.63v14.93c0,2.92.18,4.83.54,5.75.36.92.86,1.57,1.52,1.96.66.39,2.09.61,4.29.64v1.77h-19.98v-1.77c2,0,3.5-.28,4.5-.84.6-.36,1.06-.92,1.37-1.67.43-1.08.64-2.95.64-5.6v-40.97c0-5.21-.1-8.39-.3-9.55-.2-1.16-.53-1.97-.99-2.41-.46-.44-1.06-.66-1.8-.66-.6,0-1.5.28-2.7.84l-.73-1.72,11.66-5.5h1.97Z"/>
  <path class="cls-1" d="M174.81,52.75v36.15c0,2.82.18,4.69.54,5.62.36.93.89,1.63,1.59,2.09.7.46,1.98.69,3.84.69v1.77h-19.08v-1.77c1.91,0,3.2-.21,3.86-.64.66-.43,1.18-1.13,1.56-2.11s.58-2.87.58-5.65v-17.34c0-4.88-.13-8.04-.39-9.48-.2-1.05-.51-1.78-.94-2.19-.43-.41-1.01-.61-1.76-.61-.8,0-1.77.25-2.91.74l-.6-1.77,11.83-5.5h1.89ZM171.25,29.22c1.2,0,2.22.48,3.06,1.45.84.97,1.26,2.14,1.26,3.51s-.42,2.55-1.26,3.54c-.84.98-1.86,1.47-3.06,1.47s-2.23-.49-3.09-1.47c-.86-.98-1.29-2.16-1.29-3.54s.42-2.55,1.26-3.51c.84-.97,1.88-1.45,3.11-1.45Z"/>
  <path class="cls-1" d="M191.22,62.28c4.6-6.35,8.99-9.53,13.16-9.53,2.14,0,3.99.61,5.53,1.84,1.54,1.23,2.77,3.25,3.69,6.07.63,1.96.94,4.98.94,9.04v19.21c0,2.85.2,4.78.6,5.8.31.82.82,1.46,1.52,1.92.7.46,1.99.69,3.88.69v1.77h-19.42v-1.77h.81c1.83,0,3.11-.32,3.84-.96s1.24-1.58,1.52-2.82c.11-.49.17-2.03.17-4.62v-18.42c0-4.09-.46-7.06-1.39-8.92-.93-1.85-2.49-2.78-4.69-2.78-3.4,0-6.79,2.13-10.16,6.39v23.73c0,3.05.16,4.93.47,5.65.4.95.95,1.65,1.65,2.09.7.44,2.12.66,4.27.66v1.77h-19.42v-1.77h.86c2,0,3.35-.58,4.05-1.74.7-1.16,1.05-3.38,1.05-6.66v-16.7c0-5.4-.11-8.69-.32-9.87-.21-1.18-.54-1.98-.99-2.41s-1.04-.64-1.78-.64c-.8,0-1.76.25-2.87.74l-.64-1.77,11.83-5.5h1.84v9.53Z"/>
  <path class="cls-1" d="M228.29,82.66c-2.4-1.34-4.24-3.22-5.53-5.62-1.29-2.41-1.93-5.07-1.93-7.98,0-4.45,1.46-8.28,4.39-11.49,2.93-3.21,6.68-4.81,11.25-4.81,3.74,0,6.99,1.05,9.73,3.14h8.32c1.23,0,1.94.04,2.14.12.2.08.34.22.43.42.17.29.26.82.26,1.57,0,.85-.07,1.44-.21,1.77-.09.16-.24.29-.45.39-.21.1-.94.15-2.16.15h-5.1c1.6,2.36,2.4,5.37,2.4,9.04,0,4.19-1.4,7.78-4.2,10.76-2.8,2.98-6.56,4.47-11.27,4.47-1.94,0-3.93-.33-5.96-.98-1.26,1.25-2.11,2.33-2.55,3.27-.44.93-.66,1.73-.66,2.38,0,.56.24,1.1.71,1.62.47.52,1.39.9,2.76,1.13.8.13,2.8.25,6,.34,5.89.16,9.7.39,11.45.69,2.66.43,4.78,1.56,6.37,3.39,1.59,1.83,2.38,4.09,2.38,6.78,0,3.7-1.52,7.17-4.54,10.41-4.46,4.78-10.27,7.17-17.45,7.17-5.52,0-10.17-1.42-13.97-4.27-2.14-1.64-3.22-3.34-3.22-5.11,0-.79.16-1.57.47-2.36.49-1.21,1.49-2.9,3-5.06.2-.29,1.66-2.06,4.37-5.31-1.49-1.01-2.54-1.92-3.15-2.73-.61-.8-.92-1.71-.92-2.73,0-1.15.41-2.49,1.22-4.03.81-1.54,2.69-3.72,5.64-6.53ZM227.86,99.07c-1.34,1.67-2.36,3.23-3.04,4.67-.69,1.44-1.03,2.77-1.03,3.98,0,1.57.83,2.95,2.49,4.13,2.86,2.03,6.99,3.05,12.39,3.05s8.94-1.04,11.38-3.12,3.67-4.3,3.67-6.66c0-1.7-.73-2.91-2.19-3.63-1.49-.72-4.43-1.15-8.83-1.28-6.43-.2-11.37-.57-14.83-1.13ZM235.75,55.11c-2.12,0-3.89.97-5.32,2.9-1.43,1.93-2.14,4.9-2.14,8.89,0,5.17.97,9.19,2.92,12.03,1.49,2.16,3.37,3.24,5.66,3.24s3.96-.93,5.36-2.8c1.4-1.87,2.1-4.8,2.1-8.79,0-5.21-.99-9.28-2.96-12.23-1.46-2.16-3.33-3.24-5.62-3.24Z"/>
  <path class="cls-1" d="M282.37,82.66c-2.4-1.34-4.24-3.22-5.53-5.62-1.29-2.41-1.93-5.07-1.93-7.98,0-4.45,1.46-8.28,4.39-11.49,2.93-3.21,6.68-4.81,11.25-4.81,3.74,0,6.99,1.05,9.73,3.14h8.32c1.23,0,1.94.04,2.14.12.2.08.34.22.43.42.17.29.26.82.26,1.57,0,.85-.07,1.44-.21,1.77-.09.16-.24.29-.45.39-.21.1-.94.15-2.16.15h-5.1c1.6,2.36,2.4,5.37,2.4,9.04,0,4.19-1.4,7.78-4.2,10.76-2.8,2.98-6.56,4.47-11.27,4.47-1.94,0-3.93-.33-5.96-.98-1.26,1.25-2.11,2.33-2.55,3.27-.44.93-.66,1.73-.66,2.38,0,.56.24,1.1.71,1.62.47.52,1.39.9,2.76,1.13.8.13,2.8.25,6,.34,5.89.16,9.7.39,11.45.69,2.66.43,4.78,1.56,6.37,3.39,1.59,1.83,2.38,4.09,2.38,6.78,0,3.7-1.52,7.17-4.54,10.41-4.46,4.78-10.27,7.17-17.45,7.17-5.52,0-10.17-1.42-13.97-4.27-2.14-1.64-3.22-3.34-3.22-5.11,0-.79.16-1.57.47-2.36.49-1.21,1.49-2.9,3-5.06.2-.29,1.66-2.06,4.37-5.31-1.49-1.01-2.54-1.92-3.15-2.73-.61-.8-.92-1.71-.92-2.73,0-1.15.41-2.49,1.22-4.03.81-1.54,2.69-3.72,5.64-6.53ZM281.94,99.07c-1.34,1.67-2.36,3.23-3.04,4.67-.69,1.44-1.03,2.77-1.03,3.98,0,1.57.83,2.95,2.49,4.13,2.86,2.03,6.99,3.05,12.39,3.05s8.94-1.04,11.38-3.12,3.67-4.3,3.67-6.66c0-1.7-.73-2.91-2.19-3.63-1.49-.72-4.43-1.15-8.83-1.28-6.43-.2-11.37-.57-14.83-1.13ZM289.83,55.11c-2.12,0-3.89.97-5.32,2.9-1.43,1.93-2.14,4.9-2.14,8.89,0,5.17.97,9.19,2.92,12.03,1.49,2.16,3.37,3.24,5.66,3.24s3.96-.93,5.36-2.8c1.4-1.87,2.1-4.8,2.1-8.79,0-5.21-.99-9.28-2.96-12.23-1.46-2.16-3.33-3.24-5.62-3.24Z"/>
  <path class="cls-1" d="M332.13,92.59c-4.03,3.57-6.56,5.63-7.59,6.19-1.54.82-3.19,1.23-4.93,1.23-2.72,0-4.95-1.06-6.71-3.19-1.76-2.13-2.64-4.93-2.64-8.4,0-2.19.43-4.09,1.29-5.7,1.17-2.23,3.21-4.32,6.11-6.29,2.9-1.96,7.72-4.35,14.47-7.17v-1.77c0-4.49-.62-7.56-1.87-9.23-1.24-1.67-3.05-2.51-5.42-2.51-1.8,0-3.23.56-4.29,1.67-1.09,1.11-1.63,2.39-1.63,3.83l.09,2.85c0,1.51-.34,2.67-1.01,3.49-.67.82-1.55,1.23-2.64,1.23s-1.92-.43-2.59-1.28c-.67-.85-1.01-2.01-1.01-3.49,0-2.82,1.26-5.4,3.77-7.76,2.51-2.36,6.04-3.54,10.59-3.54,3.49,0,6.34.67,8.57,2.01,1.69,1.02,2.93,2.6,3.73,4.76.51,1.41.77,4.29.77,8.65v15.28c0,4.29.07,6.92.21,7.88.14.97.38,1.61.71,1.94s.71.49,1.14.49c.46,0,.86-.11,1.2-.34.6-.43,1.76-1.62,3.47-3.59v2.75c-3.2,4.91-6.26,7.37-9.17,7.37-1.4,0-2.52-.56-3.34-1.67-.83-1.11-1.26-3.01-1.29-5.7ZM332.13,89.39v-17.14c-4.32,1.96-7.1,3.36-8.36,4.17-2.26,1.44-3.87,2.95-4.84,4.52-.97,1.57-1.46,3.29-1.46,5.16,0,2.36.61,4.32,1.84,5.87,1.23,1.56,2.64,2.33,4.24,2.33,2.17,0,5.03-1.64,8.57-4.91Z"/>
  <path class="cls-1" d="M354.63,62.33c2.86-3.27,4.54-5.16,5.06-5.65,1.29-1.24,2.67-2.21,4.16-2.9s2.96-1.03,4.42-1.03c2.46,0,4.57.82,6.34,2.46,1.77,1.64,2.96,4.01,3.56,7.12,2.94-3.93,5.43-6.51,7.46-7.74,2.03-1.23,4.12-1.84,6.26-1.84s3.94.61,5.55,1.84c1.61,1.23,2.89,3.23,3.84,6.02.63,1.9.94,4.88.94,8.94v19.35c0,2.82.19,4.75.56,5.8.29.72.81,1.33,1.59,1.84.77.51,2.03.76,3.77.76v1.77h-19.38v-1.77h.81c1.69,0,3-.38,3.94-1.13.66-.52,1.13-1.36,1.41-2.51.11-.56.17-2.14.17-4.76v-19.35c0-3.67-.39-6.25-1.16-7.76-1.11-2.1-2.9-3.14-5.36-3.14-1.52,0-3.04.43-4.57,1.3-1.53.87-3.38,2.48-5.55,4.84l-.09.54.09,2.11v21.47c0,3.08.15,4.99.45,5.75.3.75.86,1.38,1.69,1.89.83.51,2.24.76,4.24.76v1.77h-19.85v-1.77c2.17,0,3.67-.29,4.48-.88.81-.59,1.38-1.47,1.69-2.65.14-.56.21-2.18.21-4.86v-19.35c0-3.67-.47-6.3-1.42-7.91-1.26-2.1-3.02-3.14-5.27-3.14-1.54,0-3.07.47-4.59,1.42-2.37,1.44-4.2,3.06-5.49,4.86v24.12c0,2.95.18,4.86.54,5.75s.89,1.55,1.59,1.99c.7.44,2.12.66,4.27.66v1.77h-19.42v-1.77c1.8,0,3.06-.22,3.77-.66.71-.44,1.26-1.15,1.63-2.11s.56-2.84.56-5.62v-17.19c0-4.94-.13-8.14-.39-9.58-.2-1.08-.51-1.83-.94-2.24-.43-.41-1.01-.61-1.76-.61-.8,0-1.76.25-2.87.74l-.64-1.77,11.83-5.5h1.84v9.58Z"/>
  <path class="cls-1" d="M411.98,71.02c-.03,6.68,1.39,11.92,4.24,15.72,2.86,3.8,6.22,5.7,10.07,5.7,2.57,0,4.81-.81,6.71-2.43,1.9-1.62,3.49-4.4,4.78-8.33l1.33.98c-.6,4.49-2.34,8.57-5.23,12.26-2.89,3.68-6.5,5.53-10.85,5.53-4.72,0-8.75-2.1-12.11-6.31-3.36-4.21-5.04-9.87-5.04-16.97,0-7.7,1.72-13.7,5.17-18,3.44-4.31,7.77-6.46,12.97-6.46,4.4,0,8.02,1.66,10.85,4.99,2.83,3.32,4.24,7.77,4.24,13.34h-27.14ZM411.98,68.17h18.18c-.14-2.88-.44-4.91-.9-6.09-.71-1.83-1.78-3.27-3.19-4.32-1.41-1.05-2.89-1.57-4.44-1.57-2.37,0-4.49,1.06-6.37,3.17-1.87,2.11-2.97,5.05-3.28,8.82Z"/>
  <path class="cls-1" d="M449.95,52.75v10.12c3.29-6.75,6.66-10.12,10.12-10.12,1.57,0,2.87.55,3.9,1.65,1.03,1.1,1.54,2.37,1.54,3.81,0,1.28-.37,2.36-1.11,3.24-.74.88-1.63,1.33-2.66,1.33s-2.12-.57-3.37-1.69c-1.24-1.13-2.16-1.7-2.76-1.7-.51,0-1.07.33-1.67.98-1.29,1.34-2.61,3.55-3.99,6.63v21.56c0,2.49.27,4.37.81,5.65.37.88,1.03,1.62,1.97,2.21.94.59,2.3.88,4.07.88v1.77h-20.11v-1.77c2,0,3.49-.36,4.46-1.08.71-.52,1.21-1.36,1.5-2.51.14-.56.21-2.14.21-4.76v-17.44c0-5.24-.09-8.36-.28-9.36-.19-1-.53-1.73-1.03-2.19-.5-.46-1.12-.69-1.86-.69-.89,0-1.89.25-3,.74l-.43-1.77,11.87-5.5h1.8Z"/>
  <path class="cls-1" d="M487.2,52.75v15.33h-1.42c-1.09-4.81-2.48-8.09-4.18-9.82-1.7-1.74-3.87-2.6-6.49-2.6-2,0-3.62.61-4.84,1.82-1.23,1.21-1.84,2.55-1.84,4.03,0,1.83.46,3.41,1.37,4.72.89,1.34,2.69,2.77,5.4,4.27l6.26,3.49c5.8,3.24,8.7,7.52,8.7,12.82,0,4.09-1.35,7.39-4.05,9.9s-5.72,3.76-9.07,3.76c-2.4,0-5.14-.49-8.23-1.47-.94-.33-1.72-.49-2.31-.49-.66,0-1.17.43-1.54,1.28h-1.42v-16.06h1.42c.8,4.59,2.33,8.04,4.59,10.36,2.26,2.33,4.79,3.49,7.59,3.49,1.97,0,3.58-.66,4.82-1.99,1.24-1.33,1.86-2.92,1.86-4.79,0-2.26-.69-4.16-2.08-5.7-1.39-1.54-4.15-3.49-8.3-5.85-4.14-2.36-6.86-4.49-8.14-6.39-1.29-1.87-1.93-4.22-1.93-7.07,0-3.7,1.11-6.79,3.32-9.28,2.21-2.49,5.08-3.73,8.6-3.73,1.54,0,3.41.38,5.62,1.13,1.46.49,2.43.74,2.91.74.46,0,.81-.11,1.07-.34.26-.23.56-.74.9-1.52h1.42Z"/>
  <path class="cls-1" d="M517.66,52.75v10.12c3.29-6.75,6.66-10.12,10.12-10.12,1.57,0,2.87.55,3.9,1.65,1.03,1.1,1.54,2.37,1.54,3.81,0,1.28-.37,2.36-1.11,3.24-.74.88-1.63,1.33-2.66,1.33s-2.12-.57-3.37-1.69c-1.24-1.13-2.16-1.7-2.76-1.7-.51,0-1.07.33-1.67.98-1.29,1.34-2.61,3.55-3.99,6.63v21.56c0,2.49.27,4.37.81,5.65.37.88,1.03,1.62,1.97,2.21.94.59,2.3.88,4.07.88v1.77h-20.11v-1.77c2,0,3.49-.36,4.46-1.08.71-.52,1.21-1.36,1.5-2.51.14-.56.21-2.14.21-4.76v-17.44c0-5.24-.09-8.36-.28-9.36-.19-1-.53-1.73-1.03-2.19-.5-.46-1.12-.69-1.86-.69-.89,0-1.89.25-3,.74l-.43-1.77,11.87-5.5h1.8Z"/>
  <path class="cls-1" d="M543.07,52.75v36.15c0,2.82.18,4.69.54,5.62.36.93.89,1.63,1.59,2.09.7.46,1.98.69,3.84.69v1.77h-19.08v-1.77c1.91,0,3.2-.21,3.86-.64.66-.43,1.18-1.13,1.56-2.11s.58-2.87.58-5.65v-17.34c0-4.88-.13-8.04-.39-9.48-.2-1.05-.51-1.78-.94-2.19-.43-.41-1.01-.61-1.76-.61-.8,0-1.77.25-2.91.74l-.6-1.77,11.83-5.5h1.89ZM539.51,29.22c1.2,0,2.22.48,3.06,1.45.84.97,1.26,2.14,1.26,3.51s-.42,2.55-1.26,3.54c-.84.98-1.86,1.47-3.06,1.47s-2.23-.49-3.09-1.47c-.86-.98-1.29-2.16-1.29-3.54s.42-2.55,1.26-3.51c.84-.97,1.88-1.45,3.11-1.45Z"/>
  <path class="cls-1" d="M573.41,52.75v15.33h-1.42c-1.09-4.81-2.48-8.09-4.18-9.82-1.7-1.74-3.87-2.6-6.49-2.6-2,0-3.62.61-4.84,1.82-1.23,1.21-1.84,2.55-1.84,4.03,0,1.83.46,3.41,1.37,4.72.89,1.34,2.69,2.77,5.4,4.27l6.26,3.49c5.8,3.24,8.7,7.52,8.7,12.82,0,4.09-1.35,7.39-4.05,9.9-2.7,2.51-5.72,3.76-9.07,3.76-2.4,0-5.14-.49-8.23-1.47-.94-.33-1.72-.49-2.31-.49-.66,0-1.17.43-1.54,1.28h-1.42v-16.06h1.42c.8,4.59,2.33,8.04,4.59,10.36,2.26,2.33,4.79,3.49,7.59,3.49,1.97,0,3.58-.66,4.82-1.99,1.24-1.33,1.86-2.92,1.86-4.79,0-2.26-.69-4.16-2.08-5.7-1.39-1.54-4.15-3.49-8.3-5.85-4.14-2.36-6.86-4.49-8.14-6.39-1.29-1.87-1.93-4.22-1.93-7.07,0-3.7,1.11-6.79,3.32-9.28,2.21-2.49,5.08-3.73,8.6-3.73,1.54,0,3.41.38,5.62,1.13,1.46.49,2.43.74,2.91.74.46,0,.81-.11,1.07-.34.26-.23.56-.74.9-1.52h1.42Z"/>
  <path class="cls-1" d="M582.92,71.02c-.03,6.68,1.39,11.92,4.24,15.72,2.86,3.8,6.22,5.7,10.07,5.7,2.57,0,4.81-.81,6.71-2.43,1.9-1.62,3.49-4.4,4.78-8.33l1.33.98c-.6,4.49-2.34,8.57-5.23,12.26-2.89,3.68-6.5,5.53-10.85,5.53-4.72,0-8.75-2.1-12.11-6.31-3.36-4.21-5.04-9.87-5.04-16.97,0-7.7,1.72-13.7,5.17-18,3.44-4.31,7.77-6.46,12.97-6.46,4.4,0,8.02,1.66,10.85,4.99,2.83,3.32,4.24,7.77,4.24,13.34h-27.14ZM582.92,68.17h18.18c-.14-2.88-.44-4.91-.9-6.09-.71-1.83-1.78-3.27-3.19-4.32-1.41-1.05-2.89-1.57-4.44-1.57-2.37,0-4.49,1.06-6.37,3.17-1.87,2.11-2.97,5.05-3.28,8.82Z"/>
  <path class="cls-1" d="M659.89,54.07v27.26c0,5.21.11,8.39.32,9.55.21,1.16.56,1.97,1.03,2.43s1.02.69,1.65.69c.89,0,1.89-.28,3-.84l.6,1.72-11.75,5.55h-1.93v-9.53c-3.37,4.19-5.94,6.83-7.72,7.91-1.77,1.08-3.64,1.62-5.62,1.62-2.2,0-4.11-.73-5.72-2.19-1.61-1.46-2.74-3.33-3.37-5.62-.63-2.29-.94-5.53-.94-9.73v-20.09c0-2.13-.2-3.6-.6-4.42-.4-.82-.99-1.45-1.78-1.89-.79-.44-2.21-.65-4.27-.61v-1.82h13.76v30.11c0,4.19.64,6.94,1.91,8.25,1.27,1.31,2.81,1.96,4.61,1.96,1.23,0,2.62-.44,4.18-1.33s3.41-2.57,5.55-5.06v-25.49c0-2.55-.41-4.28-1.22-5.18-.81-.9-2.51-1.38-5.08-1.45v-1.82h13.38Z"/>
  <path class="cls-1" d="M660.65,58.54l12.09-5.6h1.63v10.51c2.03-3.96,4.07-6.74,6.11-8.33,2.04-1.59,4.19-2.38,6.45-2.38,3.94,0,7.23,1.77,9.86,5.31,3.23,4.32,4.84,9.96,4.84,16.9,0,7.76-1.94,14.18-5.83,19.26-3.2,4.16-7.23,6.24-12.09,6.24-2.12,0-3.94-.34-5.49-1.03-1.14-.49-2.43-1.47-3.86-2.95v13.7c0,3.08.16,5.03.49,5.87.33.84.9,1.5,1.71,1.99.81.49,2.29.74,4.44.74v1.82h-20.58v-1.82h1.07c1.57.03,2.91-.31,4.03-1.03.54-.36.96-.94,1.27-1.74.3-.8.45-2.84.45-6.12v-42.54c0-2.91-.11-4.76-.34-5.55-.23-.79-.59-1.38-1.09-1.77-.5-.39-1.18-.59-2.04-.59-.69,0-1.56.23-2.61.69l-.51-1.57ZM674.37,66.35v16.8c0,3.63.13,6.03.39,7.17.4,1.9,1.38,3.57,2.94,5.01,1.56,1.44,3.52,2.16,5.89,2.16,2.86,0,5.17-1.28,6.94-3.83,2.31-3.34,3.47-8.04,3.47-14.1,0-6.88-1.31-12.17-3.94-15.87-1.83-2.55-4-3.83-6.52-3.83-1.37,0-2.73.39-4.07,1.18-1.03.59-2.73,2.36-5.1,5.31Z"/>
  <path class="cls-1" d="M699.39,45.66h9.06l.27,2.87h-.42c-.08-.68-.3-1.19-.65-1.52-.35-.33-.94-.49-1.76-.49h-.93v8.26c0,.8.08,1.3.25,1.52.17.21.52.33,1.07.36v.51h-4.65v-.51c.54-.06.88-.19,1.03-.39.14-.2.22-.7.22-1.48v-8.27h-.95c-.79,0-1.35.15-1.68.45-.33.3-.56.82-.68,1.56h-.42l.26-2.87ZM713.14,45.66l3.4,8.16,3.3-8.16h3.47v.53c-.46,0-.77.06-.93.16-.15.09-.27.25-.34.46s-.11.65-.11,1.31v6.67c0,.81.08,1.31.24,1.51.16.2.54.32,1.15.36v.51h-4.95v-.51c.49,0,.82-.07.99-.17.17-.1.29-.26.37-.46.08-.2.12-.61.12-1.23v-7.02l-3.82,9.38h-.4l-3.83-9.25v6.87c0,.65.03,1.07.11,1.26.07.2.18.34.34.45.15.1.39.16.72.16h.45v.51h-3.81v-.51c.46,0,.78-.05.94-.14.16-.09.28-.24.35-.44s.11-.63.11-1.28v-6.64c0-.72-.04-1.18-.11-1.37-.07-.19-.19-.33-.35-.43-.17-.1-.48-.15-.95-.15v-.53h3.56Z"/>
</svg>